<svg width="113" height="33" viewBox="0 0 113 33" fill="none" xmlns="http://www.w3.org/2000/svg"><path d="M1.523 14.965l13.33-13.43a2.143 2.143 0 013.048 0l13.33 13.43a2.182 2.182 0 010 3.07l-13.33 13.43a2.143 2.143 0 01-3.047 0l-13.33-13.43a2.182 2.182 0 010-3.07z" fill="#D03030"/><path d="M14.2 12.948l1.643-.14c.315-.026.627.09.851.315l9.706 9.779-1.416 1.427-10.95-10.918a.273.273 0 01.166-.463zm7.626.675l.705-.22a1.072 1.072 0 011.079.27l5.975 6.02-.867.874-6.892-6.944z" fill="#fff"/><path d="M13.922 23.76l.235-1.198c.083-.422.406-.755.822-.849l.158-.035a.489.489 0 00.244-.817l-3.657-3.815a1.09 1.09 0 01-.296-.874l.388-3.502c.055-.5.444-.896.939-.957l3.524-.439c.33-.04.66.074.894.31l2.084 2.1A.62.62 0 0020.3 13.4l.09-.344a1.08 1.08 0 01.912-.8l1.812-.22c.329-.04.658.074.892.31l6.435 6.484-.642.647-6.154-6.254a1.072 1.072 0 00-.924-.31l-.654.099a1.08 1.08 0 00-.889.821l-.202.852a1.09 1.09 0 00.286 1.02l6.14 6.186-.736.742-9.787-9.86a1.072 1.072 0 00-.833-.315l-2.334.158a1.081 1.081 0 00-1.003 1.019l-.136 2.322c-.018.31.096.613.314.832l9.79 9.863-.786.792-4.822-4.859a1.072 1.072 0 00-.98-.295l-.418.087a1.082 1.082 0 00-.844.885l-.055.335a1.09 1.09 0 00.301.945l4.849 4.886-.526.53-5.18-5.22a1.09 1.09 0 01-.295-.977z" fill="#fff"/><path d="M15.894 22.77l-.55.183 5.503 5.544.865-.871-4.733-4.605a1.071 1.071 0 00-1.085-.25z" fill="#fff"/><path d="M42.599 14.429V7.265h1.717v2.712h2.772V7.265h1.717v7.164h-1.717v-2.995h-2.772v2.995h-1.717zm10.099.161c-.776 0-1.432-.249-1.968-.748-.536-.5-.803-1.15-.803-1.953 0-.803.267-1.447.803-1.932.536-.486 1.192-.729 1.968-.729.783 0 1.443.243 1.979.729.535.485.803 1.13.803 1.932 0 .803-.268 1.454-.803 1.953-.536.499-1.196.749-1.979.749zm-.863-1.78c.214.256.505.384.873.384.369 0 .656-.128.864-.384.214-.263.321-.57.321-.92a1.36 1.36 0 00-.321-.901c-.214-.257-.506-.385-.874-.385s-.656.128-.863.385c-.208.25-.312.55-.312.9s.104.658.312.92zm4.688 1.619V9.39h2.771c1.226 0 1.838.442 1.838 1.325 0 .257-.073.48-.22.668-.141.19-.332.32-.573.395v.02c.288.054.529.186.723.395.194.209.291.472.291.789 0 .479-.18.84-.542 1.082-.362.243-.824.365-1.386.365h-2.902zm1.606-1.022h.814a.95.95 0 00.542-.142.486.486 0 00.221-.425c0-.37-.26-.556-.783-.556h-.794v1.123zm0-1.983h.804a.73.73 0 00.442-.132c.127-.088.19-.219.19-.394 0-.33-.234-.496-.702-.496h-.733v1.022zm6.789 3.166c-.777 0-1.433-.249-1.968-.748-.536-.5-.804-1.15-.804-1.953 0-.803.268-1.447.804-1.932.535-.486 1.191-.729 1.968-.729.783 0 1.443.243 1.978.729.536.485.804 1.13.804 1.932 0 .803-.268 1.454-.804 1.953-.535.499-1.195.749-1.978.749zm-.864-1.78c.215.256.506.384.874.384s.656-.128.864-.384c.214-.263.32-.57.32-.92a1.36 1.36 0 00-.32-.901c-.215-.257-.506-.385-.874-.385s-.656.128-.864.385c-.207.25-.311.55-.311.9s.104.658.311.92zm7.239 1.78c-.81 0-1.48-.242-2.008-.728-.53-.486-.794-1.136-.794-1.953 0-.802.265-1.45.794-1.942.535-.493 1.202-.739 1.998-.739.355 0 .703.064 1.045.192.348.122.619.284.813.486l-.954 1.113a.907.907 0 00-.382-.293 1.163 1.163 0 00-.492-.112c-.341 0-.619.128-.833.385a1.35 1.35 0 00-.322.91c0 .358.108.661.322.911.214.25.498.374.853.374.389 0 .687-.125.894-.374l.914 1.123c-.442.432-1.058.648-1.848.648zm3.731-.161v-3.764h-1.496V9.39h4.65v1.275H76.68v3.764h-1.657zm3.996 2.428V9.39h1.567v.617h.03a1.81 1.81 0 01.653-.546c.281-.142.596-.213.944-.213.703 0 1.272.26 1.707.78.442.512.663 1.133.663 1.861 0 .742-.218 1.376-.653 1.902-.428.52-1.004.78-1.727.78-.308 0-.6-.061-.874-.183a1.6 1.6 0 01-.643-.516h-.02v2.985H79.02zm2.792-3.663c.368 0 .656-.128.864-.384a1.42 1.42 0 00.311-.92c0-.352-.104-.652-.311-.901-.208-.257-.496-.385-.864-.385-.355 0-.646.132-.874.395-.22.263-.331.563-.331.9 0 .344.11.648.331.91.228.257.52.385.874.385zm6.329 1.396c-.776 0-1.433-.249-1.968-.748-.536-.5-.804-1.15-.804-1.953 0-.803.268-1.447.804-1.932.535-.486 1.192-.729 1.968-.729.783 0 1.443.243 1.978.729.536.485.804 1.13.804 1.932 0 .803-.268 1.454-.803 1.953-.536.499-1.196.749-1.979.749zm-.864-1.78c.215.256.506.384.874.384s.656-.128.864-.384c.214-.263.321-.57.321-.92a1.36 1.36 0 00-.321-.901c-.214-.257-.506-.385-.874-.385s-.656.128-.864.385c-.207.25-.31.55-.31.9s.103.658.31.92zm7.249-4.169c-.957 0-1.51-.441-1.656-1.325l.803-.162c.06.398.345.597.853.597.516 0 .797-.199.844-.597l.803.162c-.067.445-.247.779-.542 1.002-.288.215-.656.323-1.105.323zm-2.56 5.788V9.39h1.627v2.934h.02L95.35 9.39h1.747v5.039h-1.606v-2.864h-.03l-1.708 2.864h-1.787zm6.414 0V9.39h1.657v2.135h.03l1.637-2.135h1.998l-1.958 2.357 2.048 2.682h-2.018l-1.707-2.277h-.03v2.277h-1.658zm6.011 0V9.39h1.627v2.934h.02l1.738-2.934h1.747v5.039h-1.607v-2.864h-.03l-1.707 2.864h-1.788zM42.599 27.076v-7.163h6.166v7.163h-1.717v-5.697h-2.732v5.697h-1.717zm10.04.162c-.783 0-1.44-.236-1.968-.709-.523-.479-.784-1.13-.784-1.952 0-.81.255-1.46.764-1.953.515-.5 1.161-.749 1.938-.749.75 0 1.355.247 1.817.739.462.485.693 1.153.693 2.003 0 .182-.003.314-.01.395h-3.625c.027.27.157.496.392.678.234.182.502.273.803.273.482 0 .85-.175 1.105-.526l1.144.728c-.488.715-1.245 1.073-2.27 1.073zm-1.175-3.258h2.119a.956.956 0 00-.261-.688c-.168-.182-.409-.273-.723-.273-.308 0-.57.094-.784.283a.98.98 0 00-.351.678zm5.593 3.096v-3.764h-1.496v-1.275h4.65v1.275h-1.497v3.764h-1.657zm6.301.162c-.783 0-1.44-.236-1.968-.709-.523-.479-.784-1.13-.784-1.952 0-.81.255-1.46.764-1.953.515-.5 1.161-.749 1.938-.749.75 0 1.356.247 1.818.739.462.485.692 1.153.692 2.003 0 .182-.003.314-.01.395h-3.625c.027.27.157.496.392.678.234.182.502.273.803.273.482 0 .85-.175 1.105-.526l1.145.728c-.49.715-1.246 1.073-2.27 1.073zm-1.175-3.258h2.12a.956.956 0 00-.262-.688c-.167-.182-.408-.273-.723-.273-.308 0-.57.094-.783.283a.98.98 0 00-.352.678zm4.657 5.524v-7.467h1.566v.617h.03c.161-.222.379-.404.653-.546.282-.142.596-.213.944-.213.703 0 1.272.26 1.708.78.441.512.662 1.133.662 1.861 0 .742-.217 1.376-.652 1.902-.429.52-1.005.78-1.728.78-.308 0-.599-.061-.873-.183a1.599 1.599 0 01-.643-.516h-.02v2.985H66.84zm2.792-3.663c.368 0 .656-.128.863-.384.208-.256.312-.563.312-.92a1.36 1.36 0 00-.312-.901c-.207-.256-.495-.385-.863-.385-.355 0-.646.132-.874.395a1.36 1.36 0 00-.331.9c0 .344.11.648.331.911.228.256.519.384.874.384zm6.449 1.397c-.776 0-1.426-.243-1.948-.729a2.507 2.507 0 01-.663-1.012c-.127-.39-.19-.9-.19-1.527 0-.506.013-.938.04-1.295.033-.358.097-.712.19-1.063.1-.35.235-.637.402-.86.167-.222.395-.411.683-.566.294-.162.646-.27 1.054-.324l1.085-.142c.315-.04.532-.09.653-.151a.542.542 0 00.25-.334l1.166.334c-.1.485-.268.84-.502 1.062-.235.222-.573.36-1.015.415l-1.275.172a3.165 3.165 0 00-.613.131 1.45 1.45 0 00-.472.263c-.16.122-.284.3-.371.537a3.4 3.4 0 00-.15.89h.02c.394-.688 1.05-1.032 1.968-1.032.682 0 1.265.236 1.747.708.482.465.723 1.09.723 1.872 0 .803-.264 1.447-.793 1.932-.53.48-1.192.719-1.989.719zm-.863-1.781c.214.256.505.384.873.384.369 0 .656-.128.864-.384.214-.263.321-.57.321-.92a1.36 1.36 0 00-.321-.901c-.214-.256-.506-.385-.874-.385s-.656.128-.863.385c-.208.25-.312.55-.312.9 0 .351.104.658.312.921zm5.112 4.047c-.308 0-.61-.037-.904-.111l.18-1.396c.195.06.372.09.533.09.24 0 .418-.053.532-.161.12-.101.224-.273.311-.516l.16-.415-2.088-4.958h1.828l1.114 3.238h.03l.995-3.238h1.747l-2.24 5.798c-.214.566-.485.984-.813 1.254-.328.277-.79.415-1.386.415zm5.075 0v-7.467h1.566v.617h.03c.161-.222.379-.404.653-.546a2.07 2.07 0 01.944-.213c.703 0 1.272.26 1.707.78.442.512.663 1.133.663 1.861 0 .742-.217 1.376-.653 1.902-.428.52-1.004.78-1.727.78-.308 0-.599-.061-.873-.183a1.599 1.599 0 01-.643-.516h-.02v2.985h-1.647zm2.791-3.663c.369 0 .657-.128.864-.384.208-.256.311-.563.311-.92 0-.351-.103-.652-.31-.901-.208-.256-.496-.385-.865-.385-.354 0-.645.132-.873.395a1.36 1.36 0 00-.332.9c0 .344.11.648.332.911.228.256.519.384.874.384zm3.809 1.235v-5.039h3.665v1.275h-2.008v3.764h-1.657zm5.9.121a2.6 2.6 0 01-.834-.131 1.59 1.59 0 01-.683-.516c-.2-.25-.3-.56-.3-.931 0-1.133 1.07-1.7 3.213-1.7v-.08c0-.237-.084-.416-.251-.537-.168-.128-.385-.192-.653-.192-.455 0-.867.172-1.235.516l-.834-.9c.596-.567 1.34-.85 2.23-.85.823 0 1.412.212 1.767.637.355.418.532 1.092.532 2.023v2.54h-1.506v-.536h-.03c-.12.202-.311.364-.573.485a2.074 2.074 0 01-.843.172zm.412-1.113c.328 0 .582-.09.763-.273.18-.189.271-.442.271-.759v-.172h-.21c-1.025 0-1.537.23-1.537.688 0 .176.07.307.21.395a.99.99 0 00.503.121z" fill="#D03030"/></svg>